<svg xmlns="http://www.w3.org/2000/svg" width="60" height="20" viewBox="0 0 60 20">
    <g fill="none" fill-rule="evenodd">
        <g fill="#A200C7">
            <g>
                <g>
                    <g>
                        <g>
                            <path d="M3.901 3.381h3.561c.731 0 1.58.85 1.58 1.58v2.911c0 .525.426.951.951.951.524 0 .95-.426.95-.95V2.43c0-.525-.426-.952-.95-.952H3.9c-.525 0-.951.427-.951.952 0 .254.099.493.28.673.18.18.412.285.671.277" transform="translate(-88 -2186) translate(0 2164) translate(20 20) translate(68 2) translate(0 2)"/>
                            <path d="M12.706 11.586H8.88c-.73 0-1.58-.849-1.58-1.58V7.254c0-.525-.426-.951-.95-.951-.525 0-.951.426-.951.95v2.753c0 .731-.85 1.58-1.58 1.58H.95c-.254 0-.492.1-.672.279-.18.18-.279.419-.279.672 0 .525.426.952.95.952h11.755c.524 0 .95-.427.95-.952 0-.253-.098-.492-.278-.672-.18-.18-.418-.279-.671-.279M27.541 0c-.524 0-.95.427-.95.952v3.473h-2.343V.952c0-.525-.426-.951-.95-.951-.525 0-.952.426-.952.95v10.535c0 .524.426.951.95.951.525 0 .952-.427.952-.951V7.654c0-.731.595-1.326 1.326-1.326h1.017v5.158c0 .524.426.951.95.951.525 0 .952-.427.952-.951V.952c0-.525-.427-.952-.952-.952M17.442 3.854h2.633c.254 0 .492-.099.672-.279.18-.18.28-.418.28-.672 0-.525-.428-.951-.952-.951h-4.91c-.101 0-.203.018-.314.056-.019.005-.038.01-.052.017l-.034.017c-.335.156-.551.494-.551.86v5.285c0 .524.427.951.951.951h5.03c.525 0 .951-.427.951-.95 0-.525-.426-.952-.95-.952h-2.754c-.731 0-1.326-.595-1.326-1.325v-.739c.005-.726.6-1.318 1.326-1.318M50.115 2.05c-1.98 0-3.59 1.61-3.59 3.59 0 1.98 1.61 3.59 3.59 3.59 1.98 0 3.59-1.61 3.59-3.59 0-1.98-1.61-3.59-3.59-3.59m1.574 3.59c0 .868-.706 1.574-1.574 1.574-.868 0-1.574-.706-1.574-1.574 0-.868.706-1.574 1.574-1.574.868 0 1.574.706 1.574 1.574M43.917 0c-.524 0-.95.427-.95.952v10.534c0 .524.426.951.95.951.525 0 .952-.427.952-.951V.952c0-.525-.427-.952-.952-.952M56.937 12.437c-.579 0-1.048-.47-1.048-1.049V1.048c0-.579.47-1.048 1.048-1.048.58 0 1.05.47 1.05 1.049v10.34c0 .579-.47 1.048-1.05 1.048M35.127 6.411c0 .452-.409.82-.913.82-.505 0-.914-.368-.914-.82V4.87c0-.452.41-.819.914-.819s.913.367.913.819V6.41zm2.054.92h-.344V3.95h.223c.254 0 .493-.1.673-.28.18-.18.279-.418.279-.672 0-.524-.427-.951-.952-.951h-5.693c-.525 0-.951.427-.951.951 0 .254.099.493.279.673.18.18.418.279.672.279h.223v3.38h-.343c-.525 0-.952.428-.952.953 0 .524.427.95.952.95H37.18c.524 0 .951-.426.951-.95 0-.525-.427-.952-.951-.952z" transform="translate(-88 -2186) translate(0 2164) translate(20 20) translate(68 2) translate(0 2)"/>
                            <path d="M41.082.516c-.525 0-.95.376-.95.838v3.068h-1.655c-.525 0-.951.426-.951.951 0 .37.21.707.572.877.103.048.216.069.329.073h.616c.599 0 1.084.484 1.088 1.081v3.231c0 .462.426.838.95.838.525 0 .952-.376.952-.838V1.354c0-.462-.427-.838-.951-.838" transform="translate(-88 -2186) translate(0 2164) translate(20 20) translate(68 2) translate(0 2)"/>
                        </g>
                    </g>
                </g>
            </g>
        </g>
    </g>
</svg>
