<svg xmlns="http://www.w3.org/2000/svg" xmlns:xlink="http://www.w3.org/1999/xlink" width="1140" height="170" viewBox="0 0 1140 170">
    <defs>
        <path id="fwt64xph1a" d="M0 0H1200V170H0z"/>
        <path id="dy3semsuvc" d="M0 0.586L133.361 0.586 133.361 83.103 0 83.103z"/>
        <path id="mv0qbvsxse" d="M0.611 0.043L19.497 0.043 19.497 17.438 0.611 17.438z"/>
    </defs>
    <g fill="none" fill-rule="evenodd" transform="translate(-30)">
        <mask id="95ufkrxe0b" fill="#fff">
            <use xlink:href="#fwt64xph1a"/>
        </mask>
        <use fill="#A200C7" xlink:href="#fwt64xph1a"/>
        <path fill="#FFF" fill-rule="nonzero" d="M190.68 69.42c.68-3.62.68-6.08.68-8.3v-1.78h-12.58v1.34h10.94v.44c0 2.16 0 4.68-.68 8.12l1.64.18zm2.62 3.54v-1.34h-8.28V65.2h-1.64v6.42h-6.3v1.34h16.22zm14.937-4.78V65.4h2.62v-1.36h-2.62v-2.48h2.62v-1.34h-2.62v-2.66h-1.64v10.62h1.64zm-8.9-1.12c2.7 0 4.68-1.74 4.68-4.24 0-2.48-1.98-4.2-4.68-4.2-2.72 0-4.68 1.72-4.68 4.2 0 2.5 1.96 4.24 4.68 4.24zm0-1.38c-1.8 0-3.08-1.18-3.08-2.86s1.28-2.84 3.08-2.84c1.78 0 3.08 1.16 3.08 2.84s-1.3 2.86-3.08 2.86zm3.2 9.78c3.62 0 5.9-1.24 5.9-3.36 0-2.14-2.28-3.36-5.9-3.36-3.64 0-5.92 1.22-5.92 3.36 0 2.12 2.28 3.36 5.92 3.36zm0-1.3c-2.66 0-4.28-.78-4.28-2.06 0-1.3 1.62-2.06 4.28-2.06 2.64 0 4.26.76 4.26 2.06 0 1.28-1.62 2.06-4.26 2.06zm23.717 1.36V57.54h-1.64v17.98h1.64zm-9.46-4.08c2.66 0 4.56-2.44 4.56-6.26s-1.9-6.26-4.56-6.26c-2.66 0-4.56 2.44-4.56 6.26s1.9 6.26 4.56 6.26zm0-1.46c-1.76 0-3-1.88-3-4.8 0-2.9 1.24-4.78 3-4.78 1.74 0 2.98 1.88 2.98 4.78 0 2.92-1.24 4.8-2.98 4.8zm27.277 5.5V57.54h-1.58v7.2h-2.54v-6.8h-1.54v16.64h1.54v-8.5h2.54v9.4h1.58zm-13.42-4.42c2.68 0 4.5-.08 6.64-.54l-.14-1.36c-1.96.42-3.66.52-6.06.54v-8.64h5.06v-1.34h-6.68v11.34h1.18zm31.658-2.7v-1.32h-7.3v-1.76h5.4V64h-10.56v-1.76h9.98V61h-9.98v-1.66h10.46v-1.28h-12.1v7.22h5.16v1.76h-7.3v1.32h16.24zm-8.12 7.1c3.9 0 6.14-1 6.14-2.88 0-1.86-2.24-2.86-6.14-2.86-3.9 0-6.14 1-6.14 2.86 0 1.88 2.24 2.88 6.14 2.88zm0-1.24c-2.88 0-4.5-.56-4.5-1.64 0-1.06 1.62-1.64 4.5-1.64 2.9 0 4.5.58 4.5 1.64 0 1.08-1.6 1.64-4.5 1.64zm23.917-5.58V57.56h-1.62v2.8h-3.5v1.34h3.5v2.32h-3.5v1.32h3.5v3.3h1.62zm-5.12-1.42l-.16-1.36c-2.06.38-3.8.46-7.1.46V63.6h6.06v-5.04h-7.74v1.32h6.12v2.46h-6.06v5.32h1.28c3.58 0 5.4-.06 7.6-.44zm-.76 8.36c3.68 0 5.96-1.2 5.96-3.32 0-2.1-2.28-3.3-5.96-3.3-3.7 0-5.98 1.2-5.98 3.3 0 2.12 2.28 3.32 5.98 3.32zm0-1.26c-2.72 0-4.36-.76-4.36-2.06 0-1.28 1.64-2.04 4.36-2.04 2.7 0 4.32.76 4.32 2.04 0 1.3-1.62 2.06-4.32 2.06zm23.617 1.16V57.54h-1.56v17.94h1.56zm-3.56-.88V57.94h-1.56v6.58h-2.26c-.2-3.38-1.64-5.48-3.8-5.48-2.34 0-3.84 2.4-3.84 6.22 0 3.88 1.5 6.28 3.84 6.28 2.2 0 3.66-2.16 3.8-5.68h2.26v8.74h1.56zm-7.62-4.58c-1.44 0-2.34-1.82-2.34-4.76 0-2.88.9-4.7 2.34-4.7 1.4 0 2.32 1.82 2.32 4.7 0 2.94-.92 4.76-2.32 4.76zm27.977 5.48V57.54H311v6.08h-4.16v1.34H311V75.5h1.64zm-13.78-3.82c2.02-1.08 3.68-3.34 4.46-6 .82 2.52 2.46 4.66 4.5 5.68l.96-1.3c-2.6-1.24-4.64-4.5-4.64-7.76v-3.22h-1.64v3.22c0 3.32-2.04 6.78-4.64 8.08l1 1.3zm28.514 3.82v-7.74h7.32v-1.34h-2.66c.469-2.419.498-4.24.5-5.842V58.7h-12.04v1.32h10.44v.24c0 1.68 0 3.58-.56 6.16h-11.9v1.34h7.24v7.74h1.66zm23.577-.04V57.54h-1.56v7.1h-2.42v-6.7h-1.54v16.64h1.54v-8.6h2.42v9.48h1.56zm-7.78-4.8V59.62h-6.82v11.04h6.82zm-1.52-1.3h-3.76v-8.44h3.76v8.44zm26.518 6.1V57.52h-1.58v7.58h-2.3v-7.16h-1.54V74.6h1.54v-8.16h2.3v9.02h1.58zm-6.32-13.52V60.6h-3.64v-2.54h-1.62v2.54h-3.64v1.34h8.9zm-4.44 9.38c2.22 0 3.84-1.66 3.84-4.1 0-2.4-1.62-4.08-3.84-4.08-2.22 0-3.84 1.68-3.84 4.08 0 2.44 1.62 4.1 3.84 4.1zm0-1.36c-1.4 0-2.38-1.14-2.38-2.74 0-1.56.98-2.7 2.38-2.7 1.38 0 2.38 1.14 2.38 2.7 0 1.6-1 2.74-2.38 2.74zm29.077 3.22v-1.34h-7.32v-3.86h5.36v-9.16h-1.6v3.2h-9.16v-3.2h-1.62v9.16h5.36v3.86h-7.28v1.34h16.26zm-3.56-6.52h-9.16v-3.3h9.16v3.3zm19.277 4.04V57.54h-1.64V70.7h1.64zm-13.68-2.56c2.1-.88 3.72-2.62 4.48-4.8.8 2.04 2.38 3.66 4.42 4.44l.86-1.3c-2.66-.98-4.48-3.42-4.48-6.12v-1.82h-1.64v1.82c0 2.8-1.8 5.4-4.5 6.44l.86 1.34zm14.22 6.94v-1.34h-10.44v-4.26h-1.64v5.6h12.08zm18.954-5.66c.65-3.455.679-5.854.68-7.996V59.34h-12.58v1.34h10.94v.44c0 2.16 0 4.68-.68 8.12l1.64.18zm2.62 3.54v-1.34h-8.28V65.2h-1.64v6.42h-6.3v1.34h16.22zm16.157-4.86V57.56h-1.58v4.5h-2.36v-4.18h-1.56v10.14h1.56V63.4h2.36v4.7h1.58zm-14.24.2c4.54-1.92 6.9-5.14 6.9-9.42h-7v1.32h5.32c-.3 2.98-2.36 5.4-6.02 6.9l.8 1.2zm14.24 7.18v-6.52h-12.06v1.34h10.42v5.18h1.64zm16.817-7.78V57.52h-1.64V67.7h1.64zm-12.14-1.36c3.1 0 5.8-.22 8.78-.82l-.22-1.36c-2.82.58-5.44.8-8.38.8v-6.38h-1.64v7.76h1.46zm12.14 8.88v-6.66h-11.6v6.66h11.6zm-1.6-1.32h-8.4v-4.04h8.4v4.04zm12.258-8.6c3.84 0 6.3-1.32 6.3-3.56s-2.46-3.58-6.3-3.58-6.3 1.34-6.3 3.58 2.46 3.56 6.3 3.56zm0-1.32c-2.82 0-4.62-.82-4.62-2.24 0-1.42 1.8-2.26 4.62-2.26 2.82 0 4.62.84 4.62 2.26s-1.8 2.24-4.62 2.24zm8.1 4.32v-1.32h-16.22v1.32h16.22zm-1.78 6.78v-1.34h-10.7v-3.86h-1.64v5.2h12.34zM198.848 113.464V87.592h-3.696v9.296h-4.312c-.504-4.648-3.108-7.476-6.58-7.476-3.836 0-6.664 3.528-6.664 9.184 0 5.684 2.828 9.24 6.664 9.24 3.584 0 6.216-3.024 6.608-7.952h4.284v13.58h3.696zm-14.588-8.988c-1.876 0-3.136-2.044-3.136-5.88 0-3.808 1.26-5.852 3.136-5.852 1.904 0 3.164 2.044 3.164 5.852 0 3.836-1.26 5.88-3.164 5.88zm38.944-3.108V87.62h-3.696v4.984h-3.332v2.772h3.332v5.992h3.696zm-5.488-2.1l-.28-2.8c-1.232.28-2.352.392-4.144.42v-5.376h3.556v-2.856h-7.196v11.088h2.155c2.887-.007 4.255-.062 5.909-.476zm-8.708.028l-.28-2.8c-1.204.196-2.268.308-3.36.364v-5.348h3.108v-2.856h-6.748v11.088h1.316c2.184 0 3.864-.028 5.964-.448zm14.532 6.104v-2.772h-7.616v-2.016h-3.696v2.016h-7.644v2.772h18.956zm-9.52 8.036c4.732 0 7.56-1.26 7.56-3.612 0-2.352-2.828-3.64-7.56-3.64-4.704 0-7.532 1.288-7.532 3.64 0 2.352 2.828 3.612 7.532 3.612zm0-2.492c-2.296 0-3.584-.336-3.584-1.12s1.288-1.12 3.584-1.12c2.324 0 3.584.336 3.584 1.12s-1.26 1.12-3.584 1.12zm33.68 2.436V87.592h-3.5v25.788h3.5zm-5.488-1.12V88.18h-3.444v9.296h-2.884c.616-2.1.84-4.368.84-6.804h-10.108v2.94h6.44c-.448 5.04-2.716 8.764-7.868 11.844l2.1 2.604c3.64-2.128 5.992-4.676 7.448-7.616h4.032v11.816h3.444zm34.208-8.876V87.62h-3.5v6.272h-2.016v-5.796h-3.444v14.476h3.444V96.86h2.016v6.524h3.5zm-20.384-.7c2.38-1.008 3.976-2.856 4.9-5.04.924 1.848 2.408 3.388 4.536 4.228l1.96-2.8c-3.388-1.372-4.788-4.144-4.788-6.916V89.16h-3.556v2.996c0 2.912-1.4 6.104-5.012 7.672l1.96 2.856zm11.648 10.752c5.404 0 8.848-1.82 8.848-4.844 0-2.996-3.444-4.816-8.848-4.816-5.432 0-8.904 1.82-8.904 4.816 0 3.024 3.472 4.844 8.904 4.844zm0-2.8c-3.36 0-5.208-.672-5.208-2.044 0-1.372 1.848-2.044 5.208-2.044 3.304 0 5.152.672 5.152 2.044 0 1.372-1.848 2.044-5.152 2.044zm31.216-8.064v-5.908h3.416V93.64H298.9v-6.02h-3.696v14.952h3.696zm-19.124.028c7.644-1.988 11.956-6.636 11.956-13.524h-12.18v2.94h8.176c-.532 3.416-3.696 6.272-9.436 7.7l1.484 2.884zm19.124 10.836v-9.772h-17.192v2.94h13.496v6.832h3.696zm19.036-21.14v-2.772h-5.74v-2.1h-3.724v2.1h-5.74v2.772h15.204zm5.124 9.24v-5.432h3.416V93.08h-3.416v-5.488h-3.696v13.944h3.696zm-12.712-.196c3.836 0 6.328-1.624 6.328-4.2 0-2.604-2.492-4.228-6.328-4.228-3.808 0-6.328 1.624-6.328 4.228 0 2.576 2.52 4.2 6.328 4.2zm0-2.604c-1.708 0-2.8-.532-2.8-1.596 0-1.092 1.092-1.624 2.8-1.624 1.708 0 2.8.532 2.8 1.624 0 1.064-1.092 1.596-2.8 1.596zm13.44 14.476v-2.688h-14.056v-1.428h13.328v-6.552h-17.024v2.688h13.384v1.344h-13.356v6.636h17.724zm23.628.168v-12.628h3.332V97.7h-3.332V87.592h-3.724v25.788h3.724zm-18.144-5.376c4.592-5.096 5.236-10.64 5.236-17.752h-6.972v2.968h3.472c-.196 5.18-1.204 8.904-4.62 12.684l2.884 2.1zm7.252 1.624c4.508-5.572 5.096-11.928 5.096-19.376h-6.244v2.968h2.772c-.196 5.74-1.12 10.052-4.536 14.364l2.912 2.044zm37.908.784v-2.996h-5.18v-6.3c1.932-1.204 3.108-3.052 3.108-5.292 0-4.228-4.06-6.944-9.632-6.944-5.544 0-9.604 2.716-9.604 6.944-.028 2.24 1.148 4.088 3.108 5.292v6.3h-5.152v2.996h23.352zm-11.704-10.556c-3.584 0-5.964-1.484-5.964-4.032 0-2.576 2.38-4.032 5.964-4.032 3.584 0 5.992 1.456 5.992 4.032 0 2.548-2.408 4.032-5.992 4.032zm2.856 7.56H359.9v-4.928c.896.168 1.82.252 2.828.252 1.008 0 1.96-.084 2.856-.252v4.928zm16.992-3.472c-.42-3.948 4.452-5.292 4.452-9.268 0-3.584-2.464-5.32-5.824-5.32-2.436 0-4.424 1.148-5.88 2.8l2.268 2.072c.896-.924 1.876-1.568 3.108-1.568 1.456 0 2.38.896 2.38 2.296 0 2.688-4.76 4.48-4.088 8.988h3.584zm-1.792 7.448c1.484 0 2.576-1.176 2.576-2.688 0-1.512-1.092-2.688-2.576-2.688-1.456 0-2.548 1.176-2.548 2.688 0 1.512 1.092 2.688 2.548 2.688z" mask="url(#95ufkrxe0b)"/>
        <g mask="url(#95ufkrxe0b)">
            <g>
                <g>
                    <g transform="translate(795 20) rotate(12 -69.111 95.568)">
                        <mask id="qka359bzud" fill="#fff">
                            <use xlink:href="#dy3semsuvc"/>
                        </mask>
                        <path fill="#FFF" d="M128.412 47.84c-2.645.407-4.22 2.264-5.486 3.757-.18.213-.359.424-.539.628-.371.419-.734.837-1.096 1.254-.86.99-1.673 1.927-2.557 2.835-2.319 2.382-6.074 2.882-8.813 2.882-.376-.004-3.341-.158-5.724-.283-1.548-.08-2.776-.144-3.718-.191-.035-1.706-.131-3.564-.294-5.762-.028-.388-.066-.777-.104-1.165-.044-.457-.09-.915-.116-1.374-.028-.506-.133-.935-.217-1.28-.033-.134-.078-.317-.085-.318.025-.388.575-1.617 1.948-3.258.407-.488 1.024-.809 1.805-1.216.625-.326 1.334-.695 2.034-1.215 1.052-.782 3.012-2.236 3.123-5.142.092-2.392-.416-5.365-.925-7.116-.19-.653-.377-1.306-.562-1.957-.858-3.008-1.744-6.117-3.031-9.162-.065-.154-.133-.325-.205-.506-.682-1.72-1.953-4.92-5.166-4.92-.608 0-1.227.13-1.839.39-2.323.979-2.481 4.105-2.576 5.974l-.013.248c-.128 2.14.12 4.241.385 6.21l.13.943c.116.83.226 1.623.31 2.41-3.93-.982-8.555-.672-12.446.854-4.72 1.851-5.69 6.225-5.733 10.146-2.788-1.644-5.956-2.307-9.475-1.976-.492.047-.958.097-1.4.15l.041-.092c.583-1.284 1.185-2.612 1.552-4.225.22-.964.336-1.893.448-2.792.084-.684.164-1.331.285-1.949.29-1.474.4-3 .509-4.474.033-.454.066-.903.104-1.342.17-1.96.254-4.05.25-6.213-.005-3.018.696-5.138 2.342-7.089.442-.523.956-1.178 1.42-2.059.351-.664.714-1.588.397-2.857-.26-1.031-.738-1.825-1.422-2.361-.319-.25-.802-.533-1.468-.673-.322-.485-.761-.91-1.303-1.242-.177-.126-.59-.42-1.22-.548-.15-.03-.307-.049-.468-.057-.254-.258-.546-.481-.868-.659-1.154-.633-2.577-.62-4.023.065-.015.007-.795.394-1.525 1.093-1.66-.095-3.08.399-3.984 1.42-.749.846-1.078 1.992-.926 3.226.213 1.737 1.427 2.668 2.24 3.177l-.01.178c-.006.078-.007.156-.014.206-.277 1.127-.656 2.215-1.057 3.369-.257.74-.515 1.482-.734 2.193-.115.322-.534 1.31-.994 2.34-.162-.128-.331-.251-.505-.368-.009-.231-.023-.456-.036-.671-.016-.266-.033-.534-.038-.8-.006-.38.038-.82.085-1.285.058-.58.124-1.236.107-1.931-.016-.75-.184-1.345-.328-1.853-.114-.405-.165-.845-.223-1.356-.127-1.114-.285-2.5-1.222-3.912-.954-1.437-2.753-4.144-5.807-4-4.276.214-7.199 4.524-8.899 8.104-.13.277-.216.563-.276.858-.078.005-.15.01-.22.018-1.905.222-3.608.96-5.111 1.61-.438.19-.874.378-1.312.552-.285.113-.538.235-.765.351-.074-.067-.155-.138-.246-.21-.637-.499-1.35-.782-1.922-1.01-.177-.071-.353-.138-.509-.213-1.499-.725-3.818-1.588-6.353-1.588-.3 0-.6.013-.894.038-1.258.108-3.025.52-4.3 1.874-2.443 2.594-1.244 7.471-.63 8.975 1.148 2.822 2.713 5.468 3.946 7.35-1.662-.856-3.12-1.691-4.345-2.938l-.185-.186c-.133-.134-.334-.337-.493-.51.03-.086.058-.173.084-.262.39-1.35.143-2.792-.657-3.858-.762-1.012-1.95-1.592-3.262-1.592-.108 0-.218.003-.332.012-1.365.1-2.32.894-2.888 1.368l-.126.107-.05-.014c-.114-.03-.23-.062-.351-.09-.47-.116-.93-.174-1.367-.174-1.472 0-2.39.637-2.902 1.172-.795.83-.98 1.707-.97 2.39-.64.447-1.306 1.075-1.59 2.037-.264.904-.112 1.671.044 2.188-.452.615-1.208 1.91-.383 3.894.466 1.12 1.546 2.566 4.055 3.093.664.141 1.294.152 1.85.162.333.006.79.015.952.064.745.232 1.648 1.324 2.445 2.287.431.52.876 1.059 1.351 1.54.512.517 1.002 1.064 1.52 1.643.336.374.67.747 1.01 1.112 1.127 1.213 2.213 2.538 3.362 3.942.689.84 1.382 1.685 2.09 2.514 2.271 2.658 5.695 5.585 8.52 7.283.871.523 1.938 1.07 3.067 1.648 1.414.724 2.875 1.472 3.799 2.105 1.595 1.094 1.617 1.12 2.78 2.489 1.442 1.7 2.878 3.206 4.397 4.8l.433.453c1.678 1.763 3.668 3.23 5.591 4.648.42.309.833.614 1.237.918 6.98 5.249 13.134 8.245 19.37 9.432 2.016.384 4.184.578 6.446.578.538 0 1.075-.01 1.612-.03 3.732-.146 6.917-.68 9.735-1.639 4.211-1.43 7.172-3.135 9.052-5.209 1.56-1.72 2.98-3.858 4.327-6.517l.203.04c.353.068.752.144 1.189.185 1.62.151 4.094.33 6.672.33 2.151 0 4.032-.125 5.59-.372 5.566-.884 11.344-2.55 15.883-8.71.231-.314.47-.629.711-.944 1.444-1.896 3.077-4.045 3.617-6.805.325-1.658.02-3.159-.857-4.224-.915-1.112-2.356-1.614-3.965-1.367" mask="url(#qka359bzud)"/>
                    </g>
                    <g>
                        <path fill="#CDCDCD" d="M95.602 24.79c.526 2.201.373 4.323.391 6.578-2.552-.994-4.349-1.538-7.105-1.97-1.692-.265-3.3.34-5.03.717-1.793.393-3.068 1.182-3.808 2.717-2.564 5.318 7.225 10.017 11.46 8.923 1.821-.47 3.567-1.81 4.97-2.986 3.209-2.683 3.978-6.42 2.462-10.269-.588-1.494-1.86-2.981-3.34-3.71M61.64 17.033c-.946-1.234-2.829-1.573-4.056-.55-.659.55-1.222 1.33-1.686 2.045-.302.465-.673.868-.96 1.326-.15.241-.255.51-.335.787-.08.269-.134.545-.192.81-.096.443-.19.865-.348 1.294-.225.614-.134.691.116 1.325.471 1.193.679 3.189.218 4.41-.296.78-.688 1.472-1.05 2.212-.202.417-.183.868-.372 1.283-.19.417-.478.826-.723 1.218-.137.22-.355.424-.47.652-.128.26-.15.55-.292.814-.256.473-.507.95-.844 1.37-.238.297-.56.633-.598 1.02.385.14.78.074 1.175.128.36.05.647.27.972.412.305.134.615.25.919.389.466.214.961.307 1.435.491.696.271 1.398.535 2.1.797.785.292 1.649.4 2.483.4.87 0 1.353-.876 1.788-1.533.356-.538.502-1.262.646-1.883.08-.35.138-.703.19-1.057.053-.372.082-.726.223-1.071.13-.321.207-.679.284-1.015.166-.723.268-1.46.338-2.199.138-1.464.144-2.937.181-4.406l.01-.4c.036-1.54.138-3.078.056-4.62-.08-1.494-.265-3.22-1.208-4.449M29.478 13.482c-.69.082-1.25-.19-1.895-.44-1.366-.527-2.724-1.095-4.168-1.374-1.776-.345-3.702-.93-5.47-.225-1.583.633-1.685 2.101-1.357 3.656.397 1.89.495 3.872 1.242 5.674.296.71.807 1.223 1.112 1.922.268.615.61 1.202.913 1.792.175.339.576 1.1.998 1.172.383.064.714-.496 1.04-.603.02-.006.95 1.464 1.12 1.604.586.486 1.338.323 2.028.158.658-.156 1.29-.41 1.891-.729.842-.449 1.62-1.028 2.317-1.657 1.91-1.725 2.671-4.77 2.666-7.264-.004-.978-.008-2.668-.867-3.309-.552-.412-.941-.452-1.57-.377M52.962 61.263c.418-.515-.621-2.451-.9-2.895-.565-.906-1.37-1.685-2.31-2.192-1.833-.987-4.126-.82-5.452.909-1.974 2.577-1.215 5.862.54 8.326.557.782 1.166 1.474 1.824 2.096 1.475 1.4 3.189 2.453 5.087 3.421 2.535 1.294 5.908 5.146 7.686.809 1.203-2.936.616-6.85-1.273-9.378-.993-1.329-3.903-2.698-5.202-1.096M128.306 48.17c-.939-.149-1.792.088-2.59.557-2.12 1.247-2.988 3.345-4.53 5.065-1.463 1.632-3.764 3.057-5.702 3.964-2.366 1.108-4.906 1.726-7.395 2.474-1.566.473-3.71 1.233-4.839 2.468-3.21 3.518 4.965 2.282 6.418 2.148 4.067-.38 8.217-1.406 11.52-3.921 3.396-2.586 10.27-7.558 7.118-12.755" transform="translate(795 20) rotate(12 -69.111 95.568) translate(1.635 2.386)"/>
                        <path fill="#000" d="M60.978 38.763c.127.064.263.094.396.094.326 0 .64-.18.795-.49 2.157-4.315 3-7.944 3.341-14.38.028-.526.057-1.145.09-1.833.137-2.951.346-7.41.809-11.372.056-.487-.292-.928-.78-.985-.478-.06-.927.292-.984.78-.47 4.022-.68 8.519-.82 11.494-.032.685-.06 1.299-.088 1.822-.326 6.16-1.123 9.612-3.157 13.68-.219.437-.041.97.398 1.19M58.7 6.828c.04.004.08.007.12.007.437 0 .818-.324.878-.77.064-.486-.276-.933-.763-.998-.546-.073-.809-.42-.872-.723-.073-.35.103-.684.483-.915.397-.24 1.269-.269 1.433-.138.081.484.542.813 1.023.728.273-.046.484-.217.612-.44.303-.241.433-.65.278-1.025-.031-.076-.057-.169.04-.317.163-.25.55-.456.866-.462.242.002.453.095.558.272.027.047.054.122.074.202-.271.44-.485.984-.261 1.401.205.384.66.562 1.074.422.413-.142.727-.454.884-.88.045-.124.076-.253.094-.382.268-.16.613-.262.819-.237.24.028.256.094.268.141.074.306-.183.94-.558 1.194v.001c-.405.275-.512.827-.237 1.232.276.407.827.512 1.233.238l.053-.037c1.08-.733 1.363-.737 1.583-.466.326.395.214.871.15 1.058-.138.406-.44.708-.79.79-.478.11-.776.586-.666 1.064.095.41.46.688.865.688.066 0 .132-.008.2-.023.944-.218 1.738-.964 2.073-1.948.331-.974.16-2.004-.46-2.757-.513-.624-1.075-.835-1.663-.82.009-.219-.009-.433-.058-.634-.203-.834-.854-1.375-1.788-1.485-.498-.058-.996.05-1.43.225C64.377.376 63.604-.012 62.765 0c-.902.016-1.833.524-2.319 1.264-.06.093-.099.192-.144.288-.906-.237-2.034-.029-2.674.358-1.034.626-1.533 1.698-1.303 2.798.236 1.127 1.168 1.958 2.376 2.12M50.811 36.701c-.49-.051-.926.299-.979.787-.053.488.3.926.787.978 2.02.22 6.067 1.432 7.595 2.274.135.075.282.11.427.11.314 0 .618-.165.779-.459.236-.43.08-.97-.349-1.206-1.845-1.017-6.218-2.261-8.26-2.484M24.563 17.873c-1.372 2.033-2.533 4.833-3.026 7.157-.186-.223-.339-.41-.386-.47-1.774-2.32-2.896-4.541-3.635-7.201-.536-1.924-.433-4.503.045-4.868.388-.298.463-.855.165-1.245-.297-.388-.853-.462-1.245-.165-1.752 1.338-.979 5.669-.675 6.754.803 2.888 2.016 5.294 3.934 7.804.054.07 1.072 1.324 1.504 1.732-.024.45-.04.885-.036 1.298.004.488.401.881.888.881h.007c.49-.004.885-.404.88-.894-.004-.634.026-1.308.094-2.06.167-1.87 1.261-5.215 2.958-7.73.274-.406.168-.958-.24-1.232-.405-.274-.958-.169-1.232.239M49.204 6.636c.1.282.183.55.244.786.748 2.89.944 5.933.576 8.666-.463-.112-.936.158-1.064.622-.13.472.148.962.62 1.092.404.11.799.258 1.145.426 1.503.728 2.415 2.1 2.876 3.688.008.136.046.266.112.383.538 2.242.22 4.839-.627 6.681-1.484 3.228-3.77 5.945-6.612 7.855-.407.273-.515.825-.241 1.232.172.255.452.393.737.393.171 0 .343-.05.495-.152 3.113-2.092 5.614-5.061 7.234-8.586.979-2.128 1.377-5.173.724-7.87.448-1.342 1.165-3.152 1.863-4.912 1.274-3.208 2.476-6.238 2.59-7.652.038-.49-.327-.917-.815-.956-.491-.032-.917.326-.956.815-.091 1.148-1.354 4.33-2.469 7.138-.43 1.08-.843 2.125-1.207 3.085-.636-1.07-1.52-1.983-2.71-2.613.481-3.069.292-6.521-.552-9.782-.074-.282-.172-.6-.29-.934-.164-.462-.671-.705-1.134-.54-.462.166-.703.673-.539 1.135" transform="translate(795 20) rotate(12 -69.111 95.568) translate(1.635 2.386)"/>
                        <path fill="#000" d="M42.94 12.88c1.388.5 3.028 1.679 3.75 2.486.176.195.418.295.662.295.212 0 .423-.075.592-.226.366-.328.397-.889.07-1.254-.874-.976-2.739-2.348-4.474-2.972-1.287-.462-2.58-.705-3.938-.75 1.371-2.712 3.856-5.83 5.661-7.017.746-.49 1.357-.434 1.425-.427.223.017.824.377 1.27 1.168.24.427.783.578 1.21.338.427-.241.578-.783.337-1.21-.667-1.183-1.72-1.994-2.625-2.06-.128-.018-1.286-.153-2.593.708-2.487 1.637-5.448 5.736-6.686 8.578-1.019.108-2.083.309-3.227.625-1.43.397-3.18.954-4.84 1.852-2.507-1.555-6.594-2.901-9.409-3.081-.498-.02-.91.34-.942.829-.032.49.34.911.829.943 2.277.146 5.603 1.183 7.889 2.414-.198.297-.21.695.01 1.004.284.4.838.494 1.238.21 1.803-1.28 3.994-1.987 5.7-2.46 3.192-.884 5.611-.882 8.09.007M33.745 27.165c-.058-.487-.498-.834-.986-.778-2.114.25-3.198.53-5.377 1.243-.466.153-.72.654-.568 1.12.122.375.47.612.844.612.091 0 .184-.014.275-.044 2.088-.684 3.055-.934 5.034-1.167.487-.058.835-.499.778-.986M32.947 28.544c-1.324.736-2.431 1.164-3.407 1.541l-.161.063c-.458.177-.685.69-.508 1.148.136.353.472.568.828.568.107 0 .215-.02.32-.06l.161-.062c.979-.379 2.198-.85 3.63-1.645.429-.24.583-.78.345-1.209-.238-.428-.779-.581-1.208-.344M46.833 23.765c1.22-.732 2.517-1.197 3.856-1.384.485-.067.824-.516.756-1.002-.068-.485-.516-.824-1.002-.756-1.576.22-3.097.764-4.523 1.62-.42.251-.556.797-.305 1.217.167.278.461.432.762.432.156 0 .313-.041.456-.127M49.858 23.493c-.773.215-1.82.37-2.647.482-.486.065-.827.512-.76.998.059.446.44.77.877.77.04 0 .08-.003.12-.009.883-.12 2.008-.287 2.885-.53.472-.13.749-.62.618-1.092-.131-.473-.618-.75-1.093-.619M33.24 21.657c-.78-.23-1.966-.314-2.857-.188-.616.088-1.122.407-1.194 1.16-.063.653.488.907 1.066 1.041.311.073.632.11.868.157.519.1 1.019.282 1.538.385.747.149 1.458-.214 1.637-.925.185-.749-.348-1.42-1.058-1.63M43.689 20.87c.219-.062.426-.183.598-.352.148-.143.283-.3.415-.45.082-.094.165-.189.25-.28.167-.18.346-.349.523-.517l.228-.22c.338-.328.573-.837.22-1.28-.366-.46-.88-.564-1.462-.292-.66.308-1.428.886-1.869 1.405-.402.47-.506 1.248.017 1.732.292.27.685.364 1.08.254M39.387 28.108c-.51.47-1.298.686-2.225.605-.505-.039-.92.32-.961.809-.042.488.32.918.808.96.176.015.35.023.521.023 1.215 0 2.288-.38 3.061-1.093.404-.373.695-.75.89-1.14.36.218.759.373 1.19.444.18.029.358.043.537.043.998 0 1.947-.453 2.562-1.25.3-.388.228-.946-.16-1.245-.388-.3-.945-.228-1.245.16-.33.427-.856.63-1.407.54-.586-.097-1.043-.5-1.253-1.109-.007-.02-.023-.033-.03-.052-.071-.316-.166-.645-.287-.994.533-.59.714-1.468.394-2.195-.253-.574-.818-.904-1.551-.904-.243 0-.509.038-.747.106-1.184.336-1.826 1.112-1.674 2.026.162.968 1.049 1.505 1.911 1.584.58 1.71.254 2.138-.334 2.682M60.868 39.766c-.476.116-.768.597-.651 1.073.116.476.594.769 1.074.651.109-.025 10.973-2.607 16.17 3.48.012.013.027.017.04.029.02.018.041.033.064.049.165.143.363.234.572.234.204 0 .409-.07.576-.213.332-.284.387-.753.173-1.117-.22-.911-1.472-6.669 1.186-10.247 1.388-1.87 3.676-2.86 6.833-2.946.036-.003 3.505-.208 6.628 1.109.452.191.972-.021 1.162-.473.192-.452-.02-.973-.473-1.163-3.521-1.485-7.275-1.254-7.4-1.246-3.695.1-6.445 1.331-8.175 3.66-2.137 2.876-2.183 6.737-1.905 9.275-6.18-4.451-15.438-2.263-15.874-2.155M129.653 47.954c-.807-1.063-2.069-1.115-2.12-1.094-2.028-.149-3.007 1.145-4.64 3.281-.634.831-1.424 1.867-2.447 3.045-2.588 2.986-6.258 5.97-13.892 5.43-2.931-.206-7.485-.6-9.368-.765.608-3.685-.24-7.768-.28-7.955-.101-.479-.57-.785-1.052-.683-.48.102-.786.573-.684 1.053.01.045.956 4.6.107 8.091-.08.328.043.648.275.86.007.008.015.014.022.023.023.02.043.038.067.055.14.131.314.23.52.248.064.005 6.503.58 10.268.845.64.045 1.252.067 1.844.067 7.24 0 11.012-3.218 13.515-6.105 1.058-1.22 1.867-2.28 2.517-3.13 1.545-2.024 2.081-2.666 3.149-2.586.02 0 .512.022.794.406.316.43.327 1.25.034 2.31-.13.473.147.963.62 1.093.47.13.96-.147 1.092-.62.46-1.665.345-2.967-.34-3.87" transform="translate(795 20) rotate(12 -69.111 95.568) translate(1.635 2.386)"/>
                        <path fill="#000" d="M128.165 53.57c-.433-.225-.97-.057-1.198.378-.031.062-3.31 6.206-10.736 8.867-7.217 2.588-17.144 1.239-20.407.795l-.543-.073c-.486-.066-.932.279-.995.765-.064.486.278.932.765.995l.534.072c1.812.247 5.612.764 9.926.764 3.708 0 7.795-.382 11.32-1.646 8.105-2.906 11.57-9.444 11.712-9.721.226-.435.056-.97-.378-1.195M95.56 66.127c-.427-.236-.97-.08-1.206.35-.018.034-.052.105-.1.213-1.248 2.83-5.428 9.523-17.247 10.538-13.1 1.129-27.302-6.146-40.002-20.473-.325-.367-.886-.4-1.253-.076-.367.325-.4.886-.076 1.254 12.191 13.751 25.811 21.185 38.672 21.185.941-.001 1.88-.04 2.812-.12 12.763-1.098 17.343-8.472 18.719-11.592l.042-.093c.22-.426.063-.954-.361-1.186" transform="translate(795 20) rotate(12 -69.111 95.568) translate(1.635 2.386)"/>
                        <path fill="#000" d="M74.645 56.135c.01.005.023.003.035.008.17.166.389.259.612.259.213 0 .428-.077.598-.233.363-.33.388-.892.057-1.254-2.829-3.101-5.67-7.117-5.392-8.153.128-.473-.152-.96-.626-1.088-.476-.128-.96.153-1.088.626-.44 1.628 1.535 4.62 3.376 6.96-7.785-2.457-10.164 2.049-10.274 2.27-3.552 7.232 5.12 16.148 5.492 16.524.173.176.403.264.632.264.225 0 .45-.085.623-.256.349-.344.353-.906.009-1.256-.082-.082-8.164-8.381-5.165-14.487.022-.044 2.318-4.38 11.11-.184M89.573 58.642c.455-1.79-.807-3.286-.861-3.348-.057-.067-.124-.125-.198-.172l-14.973-9.48c-.415-.261-.963-.138-1.225.276-.263.414-.14.962.275 1.225l14.838 9.394c.176.247.61.955.42 1.677-.195.743-1.035 1.416-2.43 1.946-.458.174-.689.687-.515 1.145.135.356.473.574.83.574.021 0 .042-.011.063-.012.296.977.814 3.072.53 5.01-.073.484.263.935.747 1.007.045.006.088.01.132.01.432 0 .812-.318.876-.76.356-2.416-.315-4.934-.643-5.97 1.162-.678 1.88-1.523 2.134-2.522M96.413 15.41c2.465 1.26 4.778 6.11 6.187 12.974.087.42.457.71.87.71.058 0 .119-.007.179-.019.48-.099.79-.568.69-1.048-.904-4.406-3.032-12.11-7.119-14.198-.436-.223-.971-.05-1.194.387-.223.437-.05.972.387 1.195M103.131 31.407c.09.621.164 1.208.221 1.76.109.978.196 2.208.15 2.483-.218 1.156-.909 1.79-2.28 2.693-.41.27-.523.82-.253 1.23.17.259.454.4.743.4.167 0 .338-.048.488-.148 1.396-.92 2.68-1.907 3.047-3.84.118-.604-.052-2.31-.13-3.006-.057-.567-.135-1.18-.228-1.826-.07-.486-.521-.824-1.005-.752-.486.07-.823.52-.753 1.006M95.435 32.988c.04.463.427.813.883.813.025 0 .05-.002.077-.004.488-.042.851-.472.808-.96-.096-1.128-.21-2.338-.326-3.58-.45-4.79-.96-10.218-.656-12.96.055-.487-.297-.926-.784-.98-.476-.056-.926.297-.98.785-.324 2.922.194 8.447.653 13.321.115 1.237.228 2.442.325 3.565M99.06 39.838c-3.598 2.214-4.164 4.956-4.412 7.352-.05.488.304.924.791.974.032.004.063.005.094.005.448 0 .834-.34.881-.797.223-2.15.663-4.229 3.578-6.021.417-.257.547-.804.29-1.221-.258-.418-.805-.55-1.221-.292" transform="translate(795 20) rotate(12 -69.111 95.568) translate(1.635 2.386)"/>
                        <path fill="#A200C7" d="M53.132 33.536c-.462 0-.97.305-1.376.55l-.126.076c-.236.138-.475.283-.722.432-1.06.642-2.261 1.368-3.786 1.971-4.324 1.707-9.827 2.349-15.396 1.721-.186 0-.374.172-.388.357-.045.636 3.01 3.345 3.394 3.4 1.3.188 2.616.283 3.913.283 1.455 0 2.9-.12 4.295-.355 2.6-.439 6.385-1.74 8.587-3.378 1.042-.775 2.837-2.836 2.475-4.31-.118-.475-.434-.747-.87-.747" transform="translate(795 20) rotate(12 -69.111 95.568) translate(1.635 2.386)"/>
                        <path fill="#000" d="M35.825 41.83c-2.398-3.31-10.496-8.593-16.41-12.45-2.68-1.749-5.452-3.556-5.898-4.067-.322-.37-.882-.408-1.253-.086-.368.323-.407.883-.084 1.253.58.665 2.548 1.962 6.265 4.387 5.47 3.568 13.736 8.96 15.941 12.005.174.24.446.366.72.366.18 0 .363-.054.52-.168.397-.288.485-.842.199-1.24M34.88 54.434c-5.607-2.22-11.215-6.223-15.388-10.983-.66-.753-1.32-1.542-2.016-2.372-2.373-2.83-5.062-6.037-9.32-9.84-.367-.326-.927-.296-1.254.072-.327.365-.295.927.07 1.253 4.164 3.717 6.809 6.872 9.143 9.657.704.838 1.374 1.638 2.041 2.4 4.353 4.965 10.21 9.144 16.07 11.464.107.042.218.063.327.063.353 0 .688-.213.825-.562.18-.456-.042-.972-.498-1.152M6.933 22.6c.238.11.516.126.767-.002.437-.222.61-.754.388-1.191.018-.25.823-.866 1.398-.92.521-.045.913.145 1.09.53.144.311.15.834-.309 1.28-.352.341-.36.903-.019 1.255.174.18.406.27.637.27.223 0 .446-.084.619-.25.925-.9 1.195-2.194.685-3.3-.496-1.077-1.596-1.671-2.87-1.553-.807.077-1.928.633-2.545 1.437-.116-.066-.23-.134-.36-.182-.882-.323-1.993-.17-2.766.384-.744.527-1.156 1.377-1.088 2.225-.498.12-1.017.348-1.421.727-.717.674-.929 1.536-.58 2.363.095.226.233.44.402.638-.52.344-.913.893-.957 1.776-.052 1.03.452 2.016 1.35 2.636.557.385 1.207.585 1.844.585.396 0 .787-.077 1.147-.234.45-.196.655-.72.46-1.168-.195-.45-.719-.656-1.169-.46-.381.165-.869.095-1.274-.184-.185-.129-.615-.492-.585-1.085.022-.427.28-.628 1.753-.69 0 0 .054-.003.073-.002.488-.02.834-.432.813-.923-.02-.466-.428-.832-.89-.848v-.003c-.471.031-1.173-.352-1.33-.728-.028-.065-.07-.164.158-.378.192-.18.586-.321.95-.348.101.106.215.204.34.286.393.258.847.323 1.26.193.421-.125.691-.543.63-.978-.068-.484-.604-.808-1.116-1.01-.045-.1-.077-.204-.086-.282-.026-.242.102-.488.346-.662.298-.213.79-.285 1.12-.165.206.076.262.197.289.304.098.398.452.65.846.657" transform="translate(795 20) rotate(12 -69.111 95.568) translate(1.635 2.386)"/>
                    </g>
                </g>
                <g>
                    <path fill="#FFF" d="M17.08 26.424h.006c.581 0 1.111.146 1.429.286-.454.395-1.995.804-3.102.593-.523-.1-1.006-.225-1.443-.372 1.006-.324 2.05-.505 3.11-.507M1.614 37.41c.282.104.569.152.853.152 1.002 0 1.945-.616 2.312-1.612.8-2.17 2.32-4.373 4.27-6.114 1.205.966 2.941 1.832 5.439 2.31 2.707.519 7.356-.32 8.726-3.762.61-1.531.476-3.064-.374-4.315-1.291-1.9-3.904-2.573-5.754-2.573h-.013c-1.927.003-3.781.391-5.517 1.067.274-.565.68-1.144 1.205-1.694 4.817-5.053 16.061-8.245 23.904-4.949 1.253.527 2.7-.062 3.227-1.318.527-1.255-.063-2.7-1.318-3.226-9.92-4.17-23.446-.134-29.381 6.092-2.368 2.483-3.39 5.493-2.813 8.182-2.899 2.403-5.103 5.547-6.226 8.594-.471 1.277.183 2.695 1.46 3.166" transform="translate(795 20) rotate(11 55.325 626.449)"/>
                    <g transform="translate(795 20) rotate(11 55.325 626.449) translate(42.937)">
                        <mask id="airbibbx1f" fill="#fff">
                            <use xlink:href="#mv0qbvsxse"/>
                        </mask>
                        <path fill="#FFF" d="M18.892 5.543c-.595-1.048-1.694-1.675-2.941-1.675-.809 0-1.523.26-1.948.414l-.14.05c-.433.147-.842.322-1.229.513-.229-.572-.489-1.079-.792-1.543-.032-.052-.06-.108-.09-.163-.154-.287-.388-.72-.779-1.139-.367-.393-.981-1.05-1.837-1.462C8.451.21 7.744.042 7.033.042c-2.332 0-4.34 1.769-5.508 4.854-.52 1.377-.914 3.312-.914 4.498 0 1.545.174 3.265 1.463 4.312.788.642 1.769.981 2.836.981.79 0 1.493-.18 2.018-.338.545-.164 1.034-.375 1.482-.597.158.87.642 2.984 2.926 3.544.079.021.16.04.242.056.288.057.58.086.87.086 2.478 0 3.978-1.996 4.619-2.849.579-.772.97-1.428 1.307-2.195.384-.877.656-1.68.83-2.454l.024-.1c.225-.988.603-2.64-.336-4.297" mask="url(#airbibbx1f)"/>
                    </g>
                    <g>
                        <path fill="#A200C7" d="M58.889 6.077c.056-.347.105-.646-.136-1.06-.1-.172-.23-.311-.385-.414-.22-.146-.487-.16-.782-.119l-.126.017c-.358.038-.723.106-1.117.21-.667.175-1.252.438-1.845.714-.36.169-.767.299-1.161.426-.303.096-.605.194-.896.308l-.016.007c-.17-.686-.344-1.395-.611-2.074-.177-.454-.376-.847-.607-1.201-.067-.103-.127-.214-.187-.326-.12-.225-.246-.458-.435-.66-.29-.31-.686-.734-1.152-.958-1.032-.496-2.142-.303-3.003.52-.363.344-.674.675-.831 1.227-.064.23-.187.459-.316.701-.111.206-.226.42-.313.65-.084.223-.174.431-.264.636-.208.474-.421.964-.518 1.555-.17 1.032-.293 1.961-.065 2.875.113.46.29.917.804 1.141.456.199.952.3 1.472.3 1.198 0 2.397-.53 3.456-.996.272-.12.54-.239.802-.345.2-.082.402-.189.605-.296.077-.04.154-.082.229-.12.012.4.128.958.353 1.737l.037.13c.067.251.1.497.135.757.056.418.113.85.321 1.298.22.47.492.99.936 1.19.126.058.284.087.468.087.498 0 1.1-.2 1.396-.395.525-.347.859-.88 1.153-1.351l.095-.153c.127-.2.255-.397.382-.594.243-.372.484-.744.71-1.128l.17-.287c.286-.475.554-.925.753-1.512.048-.142.105-.283.163-.425.131-.323.267-.656.315-1.023.025-.2.015-.383.005-.56-.01-.172-.02-.333.006-.49" transform="translate(795 20) rotate(11 55.325 626.449) translate(1.644 1.665)"/>
                        <path fill="#000" d="M15.434 23.117h.007c1.1 0 2.535.397 3.036 1.133.146.215.308.577.039 1.254-.604 1.517-3.445 2.056-5.056 1.749-2.068-.396-3.636-1.152-4.578-2.184 2-1.203 4.24-1.949 6.552-1.952m20.859-11.893c-9.305-3.91-21.99-.127-27.556 5.712-2.142 2.247-2.986 4.943-2.26 7.21.045.143.097.283.154.42-3.082 2.267-5.436 5.479-6.58 8.581-.157.426.06.898.487 1.055.093.035.19.051.284.051.334 0 .648-.205.77-.537 1.038-2.813 3.181-5.681 5.915-7.723 1.174 1.393 3.109 2.388 5.645 2.873 2.201.422 5.92-.318 6.89-2.755.515-1.293.172-2.227-.206-2.784-.87-1.281-2.832-1.854-4.394-1.854h-.011c-2.665.004-5.179.831-7.394 2.158-.532-1.684.174-3.76 1.89-5.561 5.186-5.44 17.292-8.875 25.73-5.33.418.176.9-.022 1.075-.44.176-.418-.02-.9-.44-1.076M56.247 9.732c-1.22 2.094-2.24 2.817-2.708 2.601-.418-.191-.642-1.499-.665-3.886-.003-.288-.005-.547-.013-.758l.009-.006c.104-.06.287-.182.526-.343 2.958-1.996 3.684-1.917 3.826-1.851.514.392.021 2.532-.975 4.243m-5.118-2.587c-.002.028-.003.055-.002.082-2.545 2.094-4.556 2.668-5.176 2.403-.878-.374-.621-3.339.004-5.002.634-1.686 1.39-2.73 2.129-2.942.054-.016.15-.043.286-.043.245 0 .625.088 1.148.488 1.494 1.145 1.707 3.78 1.611 5.014m7.091-2.962c-1.275-.975-3.46.272-5.464 1.608-.11-1.48-.568-3.685-2.24-4.964-.975-.747-1.945-.99-2.885-.72-1.287.368-2.37 1.695-3.214 3.942-.681 1.813-1.404 6.115.889 7.092.308.132.65.192 1.016.192 1.459-.001 3.302-.951 4.92-2.125.037 1.84.227 3.986 1.614 4.62.254.115.544.193.87.193 1.016 0 2.366-.758 3.94-3.463.95-1.626 2.284-5.053.554-6.375" transform="translate(795 20) rotate(11 55.325 626.449) translate(1.644 1.665)"/>
                    </g>
                </g>
            </g>
        </g>
    </g>
</svg>
