<svg xmlns="http://www.w3.org/2000/svg" width="124" height="124" viewBox="0 0 124 124" style="background:#fff">
    <g fill="none" fill-rule="evenodd">
        <path fill="#FFF" d="M0 0H124V124H0z"/>
        <g>
            <path fill="#F0F0F1" d="M17.286 38.911c-1.344.295-2.714.444-4.082.392-1.434-.054-2.987-.148-3.865-1.413-.254-.366-1.264-3.735-1.306-3.733-.695.03-1.647.94-2.354.608-.785-.37-1.152-2.075-1.306-2.829-.267-1.313-.618-2.643-.805-3.99-.212-1.524-.93-2.803-1.118-4.35-.477-3.918.416-7.83.67-11.729.208-3.21 1.207-6.015 4.636-6.384 3.827-.411 7.262 1.778 10.533 3.416 2.663 1.332 5 3.178 7.373 4.95 1.12.838 2.063 1.673 3.45 1.887 1.268.197 2.003.488 2.856 1.593 1.324 1.715.412 5.009-.116 6.917-1.346 4.86-4.49 10.38-9.15 12.7-1.7.847-3.532 1.55-5.416 1.965" transform="translate(24 25.28)"/>
            <path fill="#D0D2D3" d="M72.937 11.125c1.056-.065 1.954.721 2.023 1.768.049.719.067 1.387.055 1.987-.128 6.784-1.63 13.594-4.219 19.31 7.664 7.357 4.172 20.528-1.311 26.99-5.09 6-11.598 10.434-18.819 12.822-.197.065-.4.097-.597.097-.797 0-1.54-.506-1.803-1.304-.33-.997.21-2.072 1.207-2.4 6.559-2.17 12.477-6.205 17.114-11.672 4.699-5.54 7.453-16.621 1.268-22.09-.58-.511-1.266-1.01-1.982-1.44-.9-.54-1.192-1.706-.652-2.606.51-.85 1.577-1.148 2.452-.726 2.173-5.093 3.43-11.075 3.544-17.054.01-.492-.007-1.049-.048-1.658-.07-1.048.72-1.953 1.768-2.024zM5.063 3.885c.974-.39 2.08.083 2.47 1.058.388.974-.085 2.08-1.06 2.47-1.102.44-2.67 5.358-2.673 9.363-.005 5.57.967 10.495 3.154 15.97.05.121.204.474.397.905 2.249-4.216 6.004-8.95 9.728-12.114.8-.68 2-.582 2.679.217.68.799.582 1.999-.217 2.678-4.663 3.963-8.605 9.864-9.944 13.405-3.33 8.788-2.93 14.685 1.376 20.351 1.836 2.417 4.153 4.568 6.885 6.394.066.046 2.467 1.74 4.47 2.636.957.429 1.386 1.553.957 2.51-.314.706-1.008 1.125-1.735 1.125-.26 0-.523-.054-.775-.167-2.347-1.05-4.962-2.897-5.072-2.974-3.04-2.031-5.663-4.472-7.756-7.225C2.022 52.69 3.218 44.727 5.39 38.32c-.633-1.08-1.906-4.02-1.966-4.166C1.05 28.21-.006 22.849 0 16.773c.001-2.296.863-11.21 5.063-12.889zm39.004 33.434c2.242 0 3.9 1.165 4.147 2.9.244 1.713-.702 3.463-2.223 4.3.033.641.036 1.245.007 1.814.01.06.026.12.03.181.083 1.363.788 2.45 1.935 2.983 1.063.495 2.292.379 3.203-.302.72-.539 1.741-.39 2.279.331.538.721.39 1.74-.331 2.279-1.11.828-2.441 1.252-3.788 1.252-.925 0-1.86-.2-2.734-.606-.845-.392-1.572-.942-2.16-1.613-.597.698-1.385 1.308-2.422 1.839-1.1.563-2.343.847-3.659.847-1.21 0-2.484-.24-3.765-.72-.843-.316-1.27-1.254-.954-2.097.314-.841 1.255-1.267 2.095-.954 1.807.676 3.51.685 4.798.025 1.6-.82 2.382-1.638 2.217-5.03-.808-.267-1.571-.723-2.139-1.357-.76-.846-1.116-1.89-1.002-2.943.207-1.92 1.918-3.119 4.466-3.129zm-16.582 9.303c.86-.26 1.77.227 2.03 1.088.26.861-.227 1.77-1.088 2.03-3.333 1.008-6.288 1.541-8.182 1.811-.078.011-.155.017-.232.017-.797 0-1.494-.585-1.61-1.399-.127-.89.492-1.715 1.382-1.842 1.458-.209 4.397-.707 7.7-1.705zm28.792-.134c.283-.852 1.205-1.316 2.06-1.03 1.573.525 3.882.866 5.262 1.07.89.132 1.505.959 1.373 1.85-.119.808-.815 1.39-1.609 1.39-.079 0-.16-.005-.24-.017-1.485-.22-3.972-.587-5.817-1.202-.853-.285-1.315-1.208-1.029-2.06zm-38.949-4.16c4.629-.205 6.885-.16 11.123.505.888.139 1.495.973 1.356 1.862-.126.802-.818 1.376-1.606 1.376-.085 0-.17-.007-.256-.02-3.992-.627-6.018-.667-10.472-.469-.922.052-1.66-.658-1.7-1.555-.039-.899.657-1.66 1.555-1.699zm39.093-.406c3.219-.883 6.457-1.115 9.627-.687.89.12 1.516.94 1.396 1.832-.12.891-.943 1.52-1.832 1.396-2.735-.367-5.536-.166-8.33.6-.144.04-.29.059-.432.059-.715 0-1.37-.474-1.57-1.198-.237-.868.273-1.764 1.14-2.002zM23.57 33.4c.549-1.428 1.708-1.771 2.953-1.61 1.806.24 4.073 1.05 5.466 1.923 1.27.794 1.942 2.396 1.173 3.751-.734 1.29-2.317 1.608-3.693.912-.955-.483-1.83-1.11-2.786-1.59-.434-.219-1.038-.466-1.605-.777-1.054-.575-1.988-1.37-1.509-2.609zm32.557-1.715c1.28-.213 2.226.27 2.69 1.366.446 1.054-.29 1.918-1.127 2.374l-.552.297c-.443.234-.885.47-1.312.73-.218.132-.43.272-.646.412-.336.22-.684.448-1.047.647-.43.236-.9.36-1.357.36-.829 0-1.545-.395-1.969-1.083-.753-1.227-.127-2.685.913-3.385 1.141-.77 2.952-1.477 4.407-1.718zm8.084-30.43c2.844-.912 4.966-.182 5.434.007 1.851.693 3.468 2.862 4.127 5.544.25 1.018-.374 2.047-1.392 2.297-1.016.253-2.049-.373-2.3-1.39-.429-1.749-1.363-2.748-1.77-2.893-.04-.015-.08-.03-.119-.048-.013-.004-1.147-.433-2.823.102-4.112 1.316-10.556 5.952-14.7 10.44 2.57.83 4.92 1.995 7.14 3.57 3.052 2.167 5.951 5.876 7.128 8.265.464.94.076 2.08-.865 2.543-.27.134-.556.197-.838.197-.702 0-1.375-.39-1.706-1.06-.963-1.956-3.5-5.129-5.92-6.845-4.325-3.07-9.02-4.386-15.699-4.403-3.58-.01-8.215.175-12.41 1.68-.986.358-2.074-.158-2.43-1.146-.26-.725-.05-1.503.47-2.007-3.773-3.606-9.622-7.38-13.934-8.891-.99-.346-1.513-1.431-1.166-2.421.347-.991 1.43-1.511 2.42-1.166 5.384 1.885 12.608 6.717 16.66 11.112 3.713-.832 7.412-.955 10.4-.96 2.381.006 4.551.19 6.585.53C50.484 9.444 58.473 3.09 64.212 1.253z" transform="translate(24 25.28)"/>
        </g>
    </g>
</svg>
