<svg xmlns="http://www.w3.org/2000/svg" width="251" height="54" viewBox="0 0 251 54">
    <g fill="#FFF" fill-rule="evenodd">
        <path fill-rule="nonzero" d="M82.276 16.562c.144-.648.279-1.356.405-2.124s.234-1.551.324-2.349c.09-.798.162-1.599.216-2.403.054-.804.087-1.566.099-2.286H72.718v1.368h9.072c-.036 1.32-.138 2.655-.306 4.005-.168 1.35-.408 2.613-.72 3.789h1.512zm3.402 3.384v-1.314h-7.866v-5.886h-1.566v5.886h-5.868v1.314h15.3zM99.34 15.41v-2.466h2.52v-1.332h-2.538V9.326h2.538V7.994h-2.52V5.96h-1.548v9.45h1.548zm-8.442-.9c.588 0 1.137-.102 1.647-.306.51-.204.954-.489 1.332-.855.378-.366.672-.798.882-1.296.21-.498.315-1.041.315-1.629 0-.576-.105-1.113-.315-1.611-.21-.498-.504-.93-.882-1.296s-.822-.654-1.332-.864c-.51-.21-1.059-.315-1.647-.315-.6 0-1.152.105-1.656.315-.504.21-.942.498-1.314.864-.372.366-.663.798-.873 1.296-.21.498-.315 1.035-.315 1.611 0 .588.105 1.131.315 1.629.21.498.501.93.873 1.296s.81.651 1.314.855c.504.204 1.056.306 1.656.306zm0-1.35c-.396 0-.756-.069-1.08-.207-.324-.138-.603-.33-.837-.576-.234-.246-.414-.534-.54-.864-.126-.33-.189-.693-.189-1.089 0-.384.066-.744.198-1.08.132-.336.315-.627.549-.873.234-.246.513-.438.837-.576.324-.138.678-.207 1.062-.207s.741.069 1.071.207c.33.138.612.33.846.576.234.246.417.537.549.873.132.336.198.696.198 1.08 0 .396-.066.759-.198 1.089-.132.33-.315.618-.549.864-.234.246-.516.438-.846.576-.33.138-.687.207-1.071.207zm3.366 9.378c.876 0 1.647-.087 2.313-.261.666-.174 1.224-.414 1.674-.72.45-.306.786-.666 1.008-1.08.222-.414.333-.867.333-1.359s-.111-.948-.333-1.368c-.222-.42-.558-.783-1.008-1.089-.45-.306-1.008-.546-1.674-.72-.666-.174-1.437-.261-2.313-.261-.888 0-1.662.087-2.322.261-.66.174-1.215.414-1.665.72-.45.306-.786.666-1.008 1.08-.222.414-.333.867-.333 1.359s.111.948.333 1.368c.222.42.558.783 1.008 1.089.45.306 1.005.546 1.665.72.66.174 1.434.261 2.322.261zm0-1.332c-.636 0-1.188-.057-1.656-.171-.468-.114-.855-.267-1.161-.459-.306-.192-.534-.417-.684-.675-.15-.258-.225-.525-.225-.801s.075-.54.225-.792c.15-.252.378-.477.684-.675.306-.198.693-.354 1.161-.468.468-.114 1.02-.171 1.656-.171.648 0 1.203.057 1.665.171.462.114.846.27 1.152.468.306.198.531.423.675.675.144.252.216.516.216.792s-.072.543-.216.801c-.144.258-.369.483-.675.675-.306.192-.69.345-1.152.459-.462.114-1.017.171-1.665.171zm21.906 1.188V5.96h-1.548v16.434h1.548zm-8.874-3.726c.588 0 1.14-.126 1.656-.378s.963-.624 1.341-1.116c.378-.492.675-1.107.891-1.845.216-.738.324-1.587.324-2.547 0-.96-.108-1.806-.324-2.538-.216-.732-.513-1.344-.891-1.836s-.825-.864-1.341-1.116c-.516-.252-1.068-.378-1.656-.378-.588 0-1.137.126-1.647.378s-.957.624-1.341 1.116c-.384.492-.687 1.104-.909 1.836-.222.732-.333 1.578-.333 2.538 0 .96.111 1.809.333 2.547.222.738.525 1.353.909 1.845s.831.864 1.341 1.116c.51.252 1.059.378 1.647.378zm0-1.368c-.42 0-.795-.111-1.125-.333-.33-.222-.606-.531-.828-.927-.222-.396-.393-.87-.513-1.422-.12-.552-.18-1.164-.18-1.836 0-.672.06-1.284.18-1.836s.291-1.026.513-1.422c.222-.396.498-.702.828-.918.33-.216.705-.324 1.125-.324.42 0 .795.108 1.125.324.33.216.606.522.828.918.222.396.393.87.513 1.422.12.552.18 1.164.18 1.836 0 .672-.06 1.284-.18 1.836s-.291 1.026-.513 1.422c-.222.396-.498.705-.828.927-.33.222-.705.333-1.125.333zm25.2 5.094V5.96h-1.548v6.12h-2.25V6.14h-1.512v15.84h1.512v-8.568h2.25v8.982h1.548zm-11.214-4.284c.444 0 .903-.018 1.377-.054.474-.036.933-.084 1.377-.144.444-.06.864-.129 1.26-.207.396-.078.738-.159 1.026-.243v-1.278c-.54.12-1.227.249-2.061.387-.834.138-1.761.207-2.781.207h-.594V8.714h4.194V7.382h-5.76V18.11h1.962zm28.8-2.16v-1.314h-7.056v-1.692h4.752V11.72h-9.198v-1.476h8.658V9.038h-8.658V7.724h8.946V6.41h-10.494v6.534h4.392v1.692h-7.002v1.314h15.66zm-7.686 6.588c.912 0 1.716-.069 2.412-.207.696-.138 1.278-.333 1.746-.585.468-.252.819-.549 1.053-.891.234-.342.351-.711.351-1.107 0-.408-.117-.783-.351-1.125-.234-.342-.585-.636-1.053-.882-.468-.246-1.05-.438-1.746-.576-.696-.138-1.5-.207-2.412-.207-.924 0-1.734.069-2.43.207-.696.138-1.278.33-1.746.576-.468.246-.822.54-1.062.882-.24.342-.36.717-.36 1.125 0 .804.471 1.47 1.413 1.998.942.528 2.337.792 4.185.792zm0-1.26c-.744 0-1.365-.045-1.863-.135-.498-.09-.9-.207-1.206-.351-.306-.144-.522-.306-.648-.486s-.189-.366-.189-.558c0-.192.063-.381.189-.567.126-.186.342-.351.648-.495.306-.144.708-.258 1.206-.342.498-.084 1.119-.126 1.863-.126.732 0 1.347.042 1.845.126.498.084.9.198 1.206.342.306.144.522.309.648.495s.189.375.189.567c0 .192-.063.378-.189.558-.126.18-.342.342-.648.486-.306.144-.708.261-1.206.351-.498.09-1.113.135-1.845.135zm21.942-4.896V5.96h-1.548v2.268h-2.736v1.278h2.754v1.602h-2.754v1.296h2.736v3.978h1.548zm-9.918-1.152c1.272 0 2.463-.06 3.573-.18 1.11-.12 2.103-.288 2.979-.504V13.25c-.756.18-1.65.336-2.682.468s-2.25.198-3.654.198h-1.53v-2.412h5.364v-4.95h-6.966V7.85h5.418v2.394h-5.382v4.986h2.88zm4.5 7.308c.912 0 1.71-.075 2.394-.225.684-.15 1.254-.357 1.71-.621.456-.264.798-.576 1.026-.936.228-.36.342-.75.342-1.17 0-.432-.114-.831-.342-1.197-.228-.366-.57-.684-1.026-.954-.456-.27-1.026-.48-1.71-.63-.684-.15-1.482-.225-2.394-.225-.9 0-1.686.075-2.358.225-.672.15-1.236.36-1.692.63-.456.27-.798.585-1.026.945-.228.36-.342.756-.342 1.188 0 .42.114.81.342 1.17.228.36.57.675 1.026.945.456.27 1.02.48 1.692.63.672.15 1.458.225 2.358.225zm0-1.26c-.648 0-1.212-.048-1.692-.144-.48-.096-.879-.222-1.197-.378-.318-.156-.552-.336-.702-.54-.15-.204-.225-.414-.225-.63 0-.228.075-.45.225-.666.15-.216.384-.405.702-.567.318-.162.717-.291 1.197-.387.48-.096 1.044-.144 1.692-.144.66 0 1.233.048 1.719.144.486.096.888.225 1.206.387.318.162.552.351.702.567.15.216.225.438.225.666 0 .216-.075.426-.225.63-.15.204-.384.384-.702.54-.318.156-.72.282-1.206.378-.486.096-1.059.144-1.719.144zm21.474 1.116V5.96h-1.548v16.434h1.548zm-8.874-3.726c.588 0 1.14-.126 1.656-.378s.963-.624 1.341-1.116c.378-.492.675-1.107.891-1.845.216-.738.324-1.587.324-2.547 0-.96-.108-1.806-.324-2.538-.216-.732-.513-1.344-.891-1.836s-.825-.864-1.341-1.116c-.516-.252-1.068-.378-1.656-.378-.588 0-1.137.126-1.647.378s-.957.624-1.341 1.116c-.384.492-.687 1.104-.909 1.836-.222.732-.333 1.578-.333 2.538 0 .96.111 1.809.333 2.547.222.738.525 1.353.909 1.845s.831.864 1.341 1.116c.51.252 1.059.378 1.647.378zm0-1.368c-.42 0-.795-.111-1.125-.333-.33-.222-.606-.531-.828-.927-.222-.396-.393-.87-.513-1.422-.12-.552-.18-1.164-.18-1.836 0-.672.06-1.284.18-1.836s.291-1.026.513-1.422c.222-.396.498-.702.828-.918.33-.216.705-.324 1.125-.324.42 0 .795.108 1.125.324.33.216.606.522.828.918.222.396.393.87.513 1.422.12.552.18 1.164.18 1.836 0 .672-.06 1.284-.18 1.836s-.291 1.026-.513 1.422c-.222.396-.498.705-.828.927-.33.222-.705.333-1.125.333zm25.488-9.918v-1.35h-5.796v1.35h5.796zm-8.55 6.912c1.02-.156 2.094-.39 3.222-.702 1.128-.312 2.202-.708 3.222-1.188.864.384 1.773.723 2.727 1.017.954.294 1.905.525 2.853.693l.738-1.242c-.888-.132-1.743-.303-2.565-.513-.822-.21-1.593-.447-2.313-.711.612-.372 1.155-.777 1.629-1.215.474-.438.849-.909 1.125-1.413.06-.096.063-.198.009-.306-.054-.108-.153-.168-.297-.18-.852.024-1.671.036-2.457.036h-7.263v1.296h3.546c.672 0 1.344-.003 2.016-.009.672-.006 1.35-.027 2.034-.063-.42.372-.948.729-1.584 1.071-.636.342-1.344.654-2.124.936-.78.282-1.62.531-2.52.747-.9.216-1.818.384-2.754.504l.756 1.242zm6.93 8.01v-5.436h6.714v-1.314h-15.3v1.314h7.056v5.436h1.53zm16.074 0v-7.038h6.696v-1.314h-2.88c.072-.468.144-.996.216-1.584.072-.588.141-1.2.207-1.836.066-.636.117-1.284.153-1.944.036-.66.054-1.296.054-1.908h-10.71v1.332h9.144c0 .432-.015.897-.045 1.395s-.069 1.005-.117 1.521-.108 1.032-.18 1.548-.144 1.008-.216 1.476h-10.926v1.314h7.02v7.038h1.584zm20.268.036v-8.19h2.79v-1.332h-2.79V5.96h-1.548v16.38h1.548zm-5.184-14.328V6.644h-5.49v1.368h5.49zm2.25 2.682V9.326h-10.008v1.368h10.008zm-4.968 8.226c.564 0 1.086-.09 1.566-.27.48-.18.897-.432 1.251-.756.354-.324.63-.708.828-1.152.198-.444.297-.93.297-1.458 0-.516-.099-.996-.297-1.44-.198-.444-.474-.828-.828-1.152-.354-.324-.771-.579-1.251-.765-.48-.186-1.002-.279-1.566-.279-.564 0-1.089.093-1.575.279-.486.186-.906.441-1.26.765s-.63.708-.828 1.152c-.198.444-.297.924-.297 1.44 0 .528.099 1.014.297 1.458.198.444.474.828.828 1.152.354.324.774.576 1.26.756.486.18 1.011.27 1.575.27zm0-1.314c-.348 0-.669-.057-.963-.171-.294-.114-.549-.273-.765-.477-.216-.204-.384-.447-.504-.729s-.18-.591-.18-.927c0-.336.06-.645.18-.927.12-.282.288-.528.504-.738.216-.21.471-.372.765-.486.294-.114.615-.171.963-.171.336 0 .651.057.945.171.294.114.549.276.765.486.216.21.384.456.504.738s.18.591.18.927c0 .336-.06.645-.18.927-.12.282-.288.525-.504.729-.216.204-.471.363-.765.477-.294.114-.609.171-.945.171zm24.3-5.778v-1.314h-9.144v-4.5H237.4v5.814h10.728zm2.322 3.69v-1.332h-15.66v1.332h15.66zm-2.214 6.624v-1.35h-9.342v-3.726h-1.548v5.076h10.89zM84.184 38.204v-8.352h-2.232v8.352h2.232zm-8.784-.306c.636 0 1.221-.099 1.755-.297.534-.198.993-.468 1.377-.81s.684-.747.9-1.215c.216-.468.324-.978.324-1.53s-.111-1.068-.333-1.548c-.222-.48-.525-.894-.909-1.242s-.843-.621-1.377-.819c-.534-.198-1.113-.297-1.737-.297-.648 0-1.239.099-1.773.297-.534.198-.996.471-1.386.819-.39.348-.69.762-.9 1.242-.21.48-.315.996-.315 1.548s.108 1.062.324 1.53c.216.468.516.873.9 1.215.384.342.846.612 1.386.81.54.198 1.128.297 1.764.297zm-.018-1.836c-.66 0-1.176-.177-1.548-.531-.372-.354-.558-.849-.558-1.485 0-.648.189-1.149.567-1.503.378-.354.891-.531 1.539-.531.648 0 1.161.177 1.539.531.378.354.567.855.567 1.503 0 .636-.189 1.131-.567 1.485-.378.354-.891.531-1.539.531zm9.126 10.296V44.54h-8.802v-1.044h8.478v-4.59H73.528v1.8h8.442v1.026h-8.442v4.626h10.98zM98.944 35.9c.132-.72.246-1.542.342-2.466.096-.924.156-1.968.18-3.132H88.27v1.89h8.946c-.012.504-.06 1.05-.144 1.638-.084.588-.198 1.278-.342 2.07h2.214zm3.024 2.664V36.71h-8.082v-2.952H91.6v2.952h-5.4v1.854h15.768zm-2.448 7.722V39.23h-2.214v1.71h-6.48v-1.71H88.63v7.056h10.89zm-2.196-1.836h-6.516v-1.71h6.516v1.71zm22.284 2.088v-8.55h2.61V36.08h-2.61v-6.228h-2.232v16.686h2.232zm-11.736-3.402c1.32-.708 2.448-1.482 3.384-2.322.936-.84 1.71-1.755 2.322-2.745.612-.99 1.074-2.055 1.386-3.195.312-1.14.51-2.358.594-3.654-1.02.024-1.971.036-2.853.036h-5.463v1.908h1.908c1.332 0 2.664-.018 3.996-.054-.096.78-.291 1.56-.585 2.34-.294.78-.711 1.533-1.251 2.259-.54.726-1.215 1.416-2.025 2.07-.81.654-1.779 1.251-2.907 1.791l1.494 1.566zm28.512 3.402V29.852h-2.232v16.686h2.232zm-12.42-3.258c.888-.54 1.725-1.173 2.511-1.899s1.497-1.521 2.133-2.385c.54.732 1.107 1.413 1.701 2.043.594.63 1.263 1.215 2.007 1.755l1.548-1.602c-.828-.552-1.575-1.164-2.241-1.836-.666-.672-1.275-1.398-1.827-2.178.528-.936.939-1.905 1.233-2.907.294-1.002.453-2.013.477-3.033-1.02.012-1.932.021-2.736.027-.804.006-1.584.009-2.34.009h-2.826v1.908h3.627c.582 0 1.167-.012 1.755-.036-.06.6-.237 1.278-.531 2.034-.294.756-.711 1.524-1.251 2.304-.54.78-1.206 1.548-1.998 2.304-.792.756-1.71 1.434-2.754 2.034l1.512 1.458zm31.518 3.114v-8.712h2.826v-1.368h-2.826V29.96h-1.548v16.434h1.548zm-11.718-3.528c2.436-1.308 4.254-2.937 5.454-4.887 1.2-1.95 1.884-4.161 2.052-6.633-.852.024-1.698.036-2.538.036h-5.346v1.332h1.854c.72 0 1.44-.003 2.16-.009.72-.006 1.446-.021 2.178-.045-.12.9-.348 1.779-.684 2.637-.336.858-.783 1.677-1.341 2.457-.558.78-1.239 1.506-2.043 2.178-.804.672-1.734 1.272-2.79 1.8l1.044 1.134zm28.638 3.528V29.96h-1.548v16.434h1.548zm-5.976-14.49v-1.368h-5.094v1.368h5.094zM160 43.226c.9-.48 1.779-1.056 2.637-1.728.858-.672 1.641-1.44 2.349-2.304.48.684 1.011 1.311 1.593 1.881.582.57 1.203 1.119 1.863 1.647l1.134-1.188c-.696-.492-1.359-1.023-1.989-1.593-.63-.57-1.197-1.227-1.701-1.971.456-.708.831-1.452 1.125-2.232.294-.78.483-1.602.567-2.466-.852.024-1.671.036-2.457.036h-5.301v1.332h1.926c.672 0 1.338-.003 1.998-.009.66-.006 1.326-.021 1.998-.045-.144.684-.426 1.389-.846 2.115-.42.726-.933 1.425-1.539 2.097-.606.672-1.287 1.296-2.043 1.872-.756.576-1.548 1.062-2.376 1.458L160 43.226z"/>
        <path d="M27 54c14.912 0 27-12.088 27-27S41.912 0 27 0 0 12.088 0 27s12.088 27 27 27zm9.429-42.5c1.509 0 2.441 1.703 3.356 4.75l.183.626c.858 3.024 1.39 6.553 1.39 9.838 0 4.199-1.8 7.368-4.857 9.357L36.5 40c0 .517-.266.998-.705 1.272-1.88 1.175-3.938 1.94-6.05 2.294-.76.586-1.712.934-2.745.934-1.034 0-1.987-.349-2.747-.936-1.859-.312-3.679-.943-5.375-1.894l-.336-.193-.321-.195c-.403-.245-.665-.663-.713-1.126L17.5 40l-.001-3.93c-3.058-1.988-4.856-5.157-4.856-9.356 0-3.297.526-6.83 1.377-9.842.97-3.43 1.93-5.372 3.551-5.372 2.102 0 4.396 1.71 7.149 5.045l.079.097h4.477l.334-.407c2.512-3.025 4.643-4.626 6.615-4.73zM27 38.5c-.828 0-1.5.672-1.5 1.5s.672 1.5 1.5 1.5 1.5-.672 1.5-1.5-.672-1.5-1.5-1.5zm-6.501-.989l.001 1.627.2.109c.586.306 1.188.567 1.801.782L22.5 40c0-.664.144-1.295.402-1.862-.842-.158-1.645-.367-2.403-.627zm13.002 0c-.758.26-1.561.47-2.405.627.26.567.404 1.198.404 1.862v.026c.47-.162.933-.354 1.387-.572l.4-.2.213-.116zM18.065 14.596l-.128.246c-.334.675-.698 1.672-1.03 2.845-.779 2.757-1.264 6.017-1.264 9.027 0 5.658 4.322 8.786 11.357 8.786 7.035 0 11.357-3.128 11.357-8.786 0-2.996-.49-6.251-1.275-9.019-.333-1.174-.699-2.174-1.033-2.854l-.035-.069-.09-.17-.167.068c-1.014.451-2.512 1.802-4.344 4.103l-.23.293c-.285.364-.721.577-1.183.577h-5.916c-.458 0-.89-.209-1.175-.567-2.055-2.588-3.714-4.054-4.786-4.46l-.058-.02zM28.172 24c.31 0 .608.123.828.343.458.458.458 1.2 0 1.657l-.586.586c-.122.122-.256.225-.398.309.083.075.159.163.225.262l.075.124c.569 1.04 2.164 2.014 2.747 1.548.647-.518 1.59-.413 2.108.234s.413 1.59-.234 2.108c-1.889 1.511-4.22.783-5.845-.686l-.064-.06-.105.099c-1.549 1.388-3.805 2.087-5.672.787l-.168-.124c-.656-.507-.776-1.449-.27-2.104.477-.617 1.34-.76 1.986-.353l.118.083c.344.266.764.237 1.382-.138.542-.328 1.086-.886 1.294-1.223l.052-.095c.087-.184.203-.338.338-.463-.142-.083-.275-.186-.397-.308L25 26c-.22-.22-.343-.518-.343-.828 0-.647.524-1.172 1.171-1.172z"/>
    </g>
</svg>
